<?xml version="1.0" encoding="UTF-8"?>
<svg id="Layer_1" xmlns="http://www.w3.org/2000/svg" version="1.1" viewBox="0 0 21.6 19.5">
  <!-- Generator: Adobe Illustrator 29.7.1, SVG Export Plug-In . SVG Version: 2.1.1 Build 8)  -->
  <path d="M17.5,4.4h-2.6v-.2c0-1.5-1.2-2.7-2.7-2.7h-3c-1.5,0-2.7,1.2-2.7,2.7v.2h-2.4c-1.4,0-2.5,1.1-2.5,2.5v8.5c0,1.4,1.1,2.5,2.5,2.5h13.5c1.4,0,2.5-1.1,2.5-2.5V7c0-1.4-1.1-2.5-2.5-2.5ZM8,4.2c0-.7.5-1.2,1.2-1.2h3c.7,0,1.2.5,1.2,1.2v.2h-5.5v-.2ZM13.4,5.9v10.6h-5.5V5.9h5.5ZM3,15.5V7c0-.6.5-1,1-1h2.4v10.6h-2.4c-.6,0-1-.5-1-1ZM18.6,15.5c0,.6-.5,1-1,1h-2.6V5.9h2.6c.6,0,1,.5,1,1v8.5Z"/>
</svg>